<?xml version="1.0" standalone="no"?>
<!DOCTYPE svg PUBLIC "-//W3C//DTD SVG 20010904//EN"
 "http://www.w3.org/TR/2001/REC-SVG-20010904/DTD/svg10.dtd">
<svg version="1.0" xmlns="http://www.w3.org/2000/svg"
 width="194.000000pt" height="194.000000pt" viewBox="0 0 194.000000 194.000000"
 preserveAspectRatio="xMidYMid meet">

<g transform="translate(0.000000,194.000000) scale(0.100000,-0.100000)"
fill="#000000" stroke="none">
<path d="M734 968 c-27 -34 -51 -67 -54 -73 -3 -6 -94 -126 -202 -267 -109
-141 -198 -259 -198 -262 0 -3 230 -6 510 -6 281 0 510 3 510 8 0 4 -16 27
-36 52 -20 25 -133 172 -251 328 -119 155 -219 282 -223 282 -4 0 -29 -28 -56
-62z"/>
</g>
</svg>
